<svg width="146" height="130" viewBox="0 0 146 130" fill="none" xmlns="http://www.w3.org/2000/svg">
<rect x="0.25" y="0.25" width="145.5" height="129.5" rx="14.75" stroke="#117893" stroke-width="0.5"/>
<path d="M100.397 62.7344C100.397 62.7344 85.2125 51.2578 83.0937 47.7266C80.6219 43.4891 79.3859 36.9563 86.4484 32.5422C93.8641 27.775 97.5719 20.1828 95.2766 15.5922C92.4516 9.94219 86.2719 10.1188 81.6812 16.2984C71.2641 29.7172 59.6109 35.5438 53.0781 45.7844C49.1937 51.7875 44.0734 60.9688 41.6016 67.6781C38.0703 77.3891 45.1328 89.5719 51.4891 93.1031L64.2016 100.519L100.397 62.7344Z" fill="#117893"/>
<path d="M66.6734 100.695C70.9109 104.403 81.6812 114.997 81.6812 114.997C88.2141 120.647 96.8656 111.112 90.3328 105.462L71.2641 88.1594C71.4406 88.1594 60.3172 95.0453 66.6734 100.695Z" fill="#117893"/>
<path d="M90.6859 105.639C95.8063 110.936 87.8609 119.411 82.0344 113.408C77.4438 108.641 73.0297 103.697 64.2016 98.2234C59.0812 95.0453 53.7844 92.0437 53.7844 92.0437C47.4281 88.3359 40.5422 77.3891 44.25 67.6781C46.7219 61.1453 51.4891 52.1406 55.3734 46.3141C61.9062 36.0734 73.3828 29.5406 83.8 16.1219C85.2125 14.1797 88.2141 11.3547 91.5688 12.0609C88.5672 11.0016 84.8594 12.4141 81.6813 16.475C71.2641 29.7172 59.6109 35.5437 53.0781 45.7844C49.1937 51.7875 44.0734 60.9687 41.6016 67.6781C38.0703 77.3891 45.1328 89.5719 51.4891 93.1031L62.9656 99.8125C72.6766 105.816 75.5016 110.23 81.1516 115.173C84.1531 117.645 88.2141 118.528 90.8625 115.527C94.0406 111.995 93.3344 108.111 90.6859 105.639Z" fill="#F0DAA4"/>
<path d="M82.5641 47.1969C102.869 58.4969 104.281 66.4422 104.281 71.2094C104.105 79.8609 92.275 80.0375 90.1562 72.6219L89.0969 62.2047C88.2141 53.3766 74.9719 42.9594 82.5641 47.1969Z" fill="#117893"/>
<path d="M56.6094 63.6172C64.2016 68.2078 73.9125 66.0891 79.0328 58.85C78.6797 59.9094 78.3266 60.9688 77.6203 61.8516C73.7359 68.2078 65.6141 70.3266 59.2578 66.4422C57.4922 65.3828 55.9031 63.7938 54.8438 62.2047C55.55 62.7344 56.0797 63.2641 56.6094 63.6172Z" fill="#F0DAA4"/>
<path d="M80.975 82.1563L74.6188 82.6859L69.8516 78.625C64.025 73.8578 56.4328 83.3922 62.0828 88.1594L68.9687 93.8094C70.3812 94.8687 71.4406 95.2219 73.2063 95.0453L82.2109 94.1625C89.6266 93.6328 88.3906 81.45 80.975 82.1563Z" fill="#117893"/>
<path d="M83.2703 93.1031L74.2656 93.8094C72.3234 93.9859 71.2641 93.6328 70.0281 92.5734L63.1422 86.9234C60.6703 84.8047 60.6703 81.8031 62.0828 79.5078C59.7875 81.8031 59.0812 85.6875 62.0828 88.1594L68.9687 93.8094C70.2047 94.8687 71.4406 95.2219 73.2063 95.0453L82.2109 94.1625C84.1531 93.9859 85.5656 92.9266 86.4484 91.5141C85.5656 92.3969 84.5062 92.9266 83.2703 93.1031Z" fill="#F0DAA4"/>
<path d="M88.9203 71.5625L81.6812 72.2688L76.0312 67.5016C69.3219 62.0281 60.3172 72.975 67.0266 78.625L75.1484 85.3344C76.7375 86.5703 77.9734 87.1 80.0922 86.7469L90.5094 85.6875C98.9844 84.9812 97.5719 70.6797 88.9203 71.5625Z" fill="#117893"/>
<path d="M91.5687 84.275L81.1516 85.3344C79.0328 85.5109 77.7969 84.9813 76.2078 83.9219L68.0859 77.2125C65.0844 74.7406 65.2609 71.2094 66.85 68.5609C64.2016 71.3859 63.3187 75.8 66.85 78.625L74.9719 85.3344C76.5609 86.5703 77.7969 87.1 79.9156 86.7469L90.3328 85.6875C92.6281 85.5109 94.2172 84.275 95.2766 82.5094C94.2172 83.5688 92.9812 84.275 91.5687 84.275Z" fill="#F0DAA4"/>
<path d="M96.8656 63.9703L89.6266 64.6766L83.9766 59.9094C77.2672 54.4359 68.2625 65.3828 74.9719 71.0328L83.0937 77.7422C84.6828 78.9781 85.9187 79.5078 88.0375 79.1547L98.4547 78.0953C106.93 77.3891 105.517 63.0875 96.8656 63.9703Z" fill="#117893"/>
<path d="M90.3328 65.7359C90.3328 65.7359 92.6281 64.1469 96.6891 64.5C93.6875 62.9109 90.1562 63.9703 90.1562 63.9703C90.1562 63.9703 83.2703 55.8484 76.9141 59.2031C83.6234 57.7906 90.3328 65.7359 90.3328 65.7359Z" fill="#F0DAA4"/>
<path d="M99.3375 76.6828L88.9203 77.7422C86.8016 77.9187 85.5656 77.3891 83.9766 76.3297L75.8547 69.6203C72.8531 67.1484 73.0297 63.6172 74.6187 60.9688C71.9703 63.7937 71.0875 68.2078 74.6187 71.0328L82.7406 77.7422C84.3297 78.9781 85.5656 79.5078 87.6844 79.1547L98.1016 78.0953C100.397 77.9187 101.986 76.6828 103.045 74.9172C102.162 75.9766 100.927 76.5062 99.3375 76.6828Z" fill="#F0DAA4"/>
</svg>
